#tb 0: 1001/30000
0,          0,          0,        1,    59388, 7109d2ef160828ece26337f36fcfc092
0,          1,          1,        1,    59388, bdaa6612f81a956d9b20d55a04df8346
0,          2,          2,        1,    59388, 15eb75495d2713a64415b990b058d5ca
0,          3,          3,        1,    59388, b997c84553475ba84e8ba3d7ee19ae4e
0,          4,          4,        1,    59388, 63a8badd691bcf643cf676d029ce8a6c
0,          5,          5,        1,    59388, b8ca23d9b3418c4c36040a215b2b7917
0,          6,          6,        1,    59388, 1be0da18386c35e4a5e5d5d32d9a4468
0,          7,          7,        1,    59388, e75a03fa70fe7e6b3a8d8ce7dc8305f1
0,          8,          8,        1,    59388, cbd2b60df9209025c8e890771a05321d
0,          9,          9,        1,    59388, c655d6fcc3333917b66358a9ac2b1357
